<svg xmlns="http://www.w3.org/2000/svg" xmlns:xlink="http://www.w3.org/1999/xlink" width="500" height="500" preserveAspectRatio="xMidYMid meet" version="1.0" viewBox="0 0 375 375" zoomAndPan="magnify"><defs><clipPath id="3a1e6e9a8e"><path d="M 4.25 14.332031 L 370.46875 14.332031 L 370.46875 361 L 4.25 361 Z M 4.25 14.332031" clip-rule="nonzero"/></clipPath></defs><g clip-path="url(#3a1e6e9a8e)"><path fill="#470d0d" fill-opacity="1" fill-rule="nonzero" d="M 158.636719 358.78125 C 159.363281 357.605469 154.40625 356.925781 145.066406 356.925781 C 135.617188 356.925781 128.457031 355.9375 125.046875 354.160156 C 122.128906 352.640625 118.285156 351.386719 116.5 351.382812 C 114.71875 351.375 113.261719 350.539062 113.261719 349.519531 C 113.261719 348.5 111.566406 347.667969 109.496094 347.667969 C 107.429688 347.667969 105.253906 346.417969 104.667969 344.886719 C 104.082031 343.359375 102.625 342.109375 101.429688 342.109375 C 100.238281 342.109375 98.035156 340.339844 96.535156 338.179688 C 95.039062 336.015625 92.769531 333.160156 91.496094 331.828125 C 90.222656 330.496094 89.183594 328.46875 89.183594 327.316406 C 89.183594 326.164062 88.453125 325.671875 87.5625 326.222656 C 86.667969 326.773438 85.410156 323.90625 84.761719 319.851562 C 84.113281 315.792969 82.757812 312.476562 81.75 312.476562 C 79.484375 312.476562 79.277344 285.308594 81.535156 283.914062 C 82.421875 283.367188 83.671875 280.289062 84.316406 277.074219 C 84.957031 273.859375 87.03125 269.882812 88.921875 268.238281 C 90.808594 266.59375 92.953125 263.359375 93.679688 261.050781 C 94.410156 258.746094 95.6875 257.28125 96.527344 257.796875 C 97.363281 258.3125 98.585938 256.589844 99.246094 253.960938 C 100.292969 249.792969 103.191406 246.453125 112.796875 238.34375 C 114.070312 237.269531 115.113281 234.757812 115.113281 232.761719 C 115.113281 230.761719 115.863281 229.128906 116.78125 229.128906 C 117.703125 229.128906 119.035156 224.128906 119.742188 218.015625 C 120.453125 211.902344 121.785156 206.902344 122.703125 206.902344 C 123.621094 206.902344 124.375 205.710938 124.375 204.253906 C 124.375 202.796875 126.226562 201.335938 128.496094 201.011719 C 130.761719 200.6875 133.664062 198.335938 134.949219 195.789062 C 136.234375 193.242188 137.296875 191.949219 137.3125 192.917969 C 137.324219 193.886719 138.339844 193.679688 139.5625 192.457031 C 140.785156 191.234375 143.285156 190.234375 145.117188 190.234375 C 146.949219 190.234375 148.453125 189.160156 148.453125 187.847656 C 148.453125 186.539062 150.183594 185.335938 152.304688 185.175781 C 154.421875 185.015625 158.289062 182.753906 160.890625 180.148438 C 163.765625 177.277344 167.710938 175.414062 170.929688 175.414062 C 173.847656 175.414062 176.234375 174.582031 176.234375 173.5625 C 176.234375 172.542969 179.152344 171.710938 182.71875 171.710938 C 186.28125 171.710938 189.199219 172.542969 189.199219 173.5625 C 189.199219 174.582031 192.949219 175.414062 197.535156 175.414062 C 202.648438 175.414062 205.867188 176.25 205.867188 177.578125 C 205.867188 178.765625 206.390625 179.214844 207.027344 178.582031 C 208.734375 176.871094 223.8125 185.363281 228.992188 190.949219 C 231.457031 193.613281 234.398438 195.789062 235.523438 195.789062 C 236.652344 195.789062 237.101562 196.554688 236.523438 197.492188 C 235.945312 198.425781 237.980469 199.742188 241.042969 200.414062 C 244.109375 201.089844 246.617188 202.464844 246.617188 203.476562 C 246.617188 205.78125 249.789062 208.972656 256.339844 213.257812 C 259.140625 215.089844 261.433594 217.386719 261.433594 218.359375 C 261.433594 220.75 266.246094 225.421875 268.710938 225.421875 C 269.800781 225.421875 270.695312 227.089844 270.695312 229.128906 C 270.695312 231.164062 271.511719 232.832031 272.511719 232.832031 C 273.511719 232.832031 274.851562 234.917969 275.492188 237.460938 C 276.128906 240.007812 277.339844 242.09375 278.179688 242.09375 C 279.019531 242.09375 280.289062 243.929688 281 246.175781 C 281.714844 248.417969 283.4375 251.394531 284.832031 252.789062 C 286.222656 254.183594 287.363281 256.511719 287.363281 257.96875 C 287.363281 259.425781 288.199219 260.613281 289.214844 260.613281 C 290.234375 260.613281 291.070312 262.699219 291.070312 265.246094 C 291.070312 267.792969 291.863281 269.875 292.835938 269.875 C 293.808594 269.875 295.152344 272.792969 295.820312 276.359375 C 296.492188 279.921875 297.6875 282.839844 298.476562 282.839844 C 299.269531 282.839844 300.464844 285.757812 301.132812 289.324219 C 301.800781 292.890625 303.144531 295.804688 304.117188 295.804688 C 305.089844 295.804688 305.886719 300.808594 305.886719 306.917969 C 305.886719 313.09375 305.0625 318.03125 304.035156 318.03125 C 303.015625 318.03125 302.183594 319.726562 302.183594 321.792969 C 302.183594 323.863281 300.863281 326.0625 299.25 326.683594 C 297.003906 327.542969 296.863281 328.148438 298.65625 329.257812 C 300.160156 330.1875 298.558594 331.160156 294.183594 331.984375 C 290.433594 332.6875 287.363281 334.003906 287.363281 334.90625 C 287.363281 335.8125 286.089844 336.554688 284.527344 336.554688 C 282.96875 336.554688 281.210938 337.804688 280.625 339.332031 C 280.039062 340.859375 278.46875 342.109375 277.132812 342.109375 C 275.800781 342.109375 274.417969 342.984375 274.0625 344.050781 C 273.703125 345.121094 268.632812 346.488281 262.792969 347.089844 C 256.953125 347.691406 252.171875 348.828125 252.171875 349.609375 C 252.171875 350.394531 241.335938 351.636719 228.09375 352.367188 C 214.851562 353.097656 204.015625 354.425781 204.015625 355.3125 C 204.015625 356.203125 199.433594 356.929688 193.828125 356.929688 C 188.226562 356.929688 183.640625 357.761719 183.640625 358.78125 C 183.640625 359.839844 178.050781 360.632812 170.566406 360.632812 C 162.324219 360.632812 157.914062 359.949219 158.636719 358.78125 Z M 182.136719 174.148438 C 180.800781 173.613281 179.203125 173.675781 178.589844 174.292969 C 177.972656 174.90625 179.066406 175.347656 181.019531 175.265625 C 183.175781 175.175781 183.617188 174.738281 182.136719 174.144531 Z M 45.6875 244.863281 C 42.648438 243.210938 38.65625 240.246094 36.816406 238.269531 C 34.980469 236.296875 32.761719 234.679688 31.894531 234.679688 C 31.023438 234.679688 29.792969 232.597656 29.152344 230.050781 C 28.511719 227.503906 27.171875 225.421875 26.171875 225.421875 C 25.175781 225.421875 24.355469 223.308594 24.355469 220.730469 C 24.355469 218.152344 23.105469 215.5625 21.578125 214.976562 C 20.050781 214.390625 18.800781 212.382812 18.800781 210.515625 C 18.800781 208.644531 18.042969 206.648438 17.121094 206.078125 C 16.199219 205.507812 14.847656 200.667969 14.117188 195.320312 C 13.390625 189.972656 11.855469 185.003906 10.703125 184.277344 C 9.34375 183.421875 8.613281 175.332031 8.613281 161.136719 L 8.613281 139.316406 L 15.097656 137.09375 C 18.660156 135.871094 20.746094 134.78125 19.726562 134.664062 C 18.707031 134.550781 20.792969 133.414062 24.355469 132.144531 C 30.976562 129.785156 41.027344 131.414062 41.027344 134.84375 C 41.027344 135.765625 42.691406 136.515625 44.730469 136.515625 C 46.769531 136.515625 48.433594 137.351562 48.433594 138.367188 C 48.433594 139.386719 49.335938 140.222656 50.433594 140.222656 C 51.53125 140.222656 56.183594 143.972656 60.765625 148.554688 C 65.351562 153.140625 69.851562 156.890625 70.773438 156.890625 C 71.691406 156.890625 72.964844 158.972656 73.605469 161.519531 C 74.242188 164.066406 75.402344 166.152344 76.179688 166.152344 C 76.960938 166.152344 78.128906 169.484375 78.78125 173.558594 C 79.433594 177.636719 80.773438 180.96875 81.761719 180.96875 C 82.746094 180.96875 84.078125 183.050781 84.71875 185.597656 C 85.355469 188.144531 86.621094 190.230469 87.53125 190.230469 C 88.4375 190.230469 89.183594 191.898438 89.183594 193.933594 C 89.183594 195.972656 90.015625 197.636719 91.035156 197.636719 C 92.113281 197.636719 92.886719 203.777344 92.886719 212.347656 C 92.886719 220.4375 92.054688 227.570312 91.035156 228.199219 C 90.015625 228.828125 89.183594 231.011719 89.183594 233.046875 C 89.183594 235.085938 88.347656 236.238281 87.328125 235.605469 C 86.3125 234.976562 85.476562 235.789062 85.476562 237.410156 C 85.476562 239.027344 84.019531 240.890625 82.238281 241.550781 C 80.453125 242.207031 78.464844 243.535156 77.816406 244.503906 C 77.167969 245.46875 70.917969 246.621094 63.925781 247.0625 C 54.507812 247.65625 49.78125 247.085938 45.6875 244.863281 Z M 306.617188 239.480469 C 306.066406 238.042969 303.648438 236.375 301.242188 235.769531 C 298.835938 235.167969 296.285156 232.800781 295.570312 230.507812 C 294.855469 228.21875 293.757812 225.929688 293.132812 225.421875 C 289.4375 222.417969 287.359375 214.722656 287.359375 204.035156 C 287.359375 195.65625 286.726562 192.253906 285.324219 193.121094 C 283.84375 194.039062 283.84375 193.34375 285.324219 190.574219 C 286.445312 188.480469 287.359375 183.789062 287.359375 180.148438 C 287.359375 175.816406 288.644531 172.425781 291.066406 170.351562 C 293.101562 168.609375 294.78125 165.074219 294.796875 162.5 C 294.824219 158.402344 298.371094 149.886719 298.445312 153.746094 C 298.515625 157.492188 307.734375 144.726562 307.734375 140.875 C 307.734375 138.121094 308.820312 136.515625 310.691406 136.515625 C 312.316406 136.515625 316 134.839844 318.875 132.792969 C 327.457031 126.679688 357.742188 128.105469 357.742188 134.617188 C 357.742188 135.664062 358.859375 136.515625 360.226562 136.515625 C 362.816406 136.515625 367.003906 144.007812 367.003906 148.644531 C 367.003906 150.125 367.839844 151.335938 368.855469 151.335938 C 369.972656 151.335938 370.707031 159.050781 370.707031 170.78125 C 370.707031 181.476562 369.980469 190.230469 369.09375 190.230469 C 368.203125 190.230469 366.9375 193.621094 366.273438 197.765625 C 365.585938 202.070312 363.101562 207.265625 360.480469 209.886719 C 357.957031 212.410156 355.890625 215.6875 355.890625 217.167969 C 355.890625 218.652344 355.058594 219.863281 354.039062 219.863281 C 353.019531 219.863281 352.1875 221.140625 352.1875 222.699219 C 352.1875 224.261719 351.019531 225.984375 349.589844 226.53125 C 348.164062 227.082031 346.574219 229.136719 346.0625 231.101562 C 345.546875 233.0625 343.175781 235.453125 340.785156 236.410156 C 338.21875 237.441406 337.578125 238.25 339.222656 238.398438 C 347.015625 239.09375 333.015625 241.84375 321.105469 241.960938 C 311.117188 242.054688 307.359375 241.414062 306.617188 239.480469 Z M 4.277344 155.035156 C 4.277344 152.488281 4.695312 151.449219 5.210938 152.71875 C 5.722656 153.992188 5.722656 156.078125 5.210938 157.351562 C 4.695312 158.625 4.277344 157.582031 4.277344 155.035156 Z M 121.261719 153.722656 C 121.953125 152.609375 120.222656 151.335938 117.195312 150.730469 C 111.195312 149.527344 98.445312 137.996094 98.445312 133.769531 C 98.445312 132.222656 97.660156 130.957031 96.707031 130.957031 C 95.75 130.957031 94.40625 127.214844 93.71875 122.640625 C 93.035156 118.066406 91.734375 114.785156 90.828125 115.34375 C 89.921875 115.902344 89.183594 113.761719 89.183594 110.582031 C 89.183594 107.207031 88.414062 105.285156 87.332031 105.953125 C 86.246094 106.621094 85.425781 104.558594 85.351562 100.96875 C 84.953125 81.804688 83.539062 53.398438 82.761719 49 C 82.269531 46.199219 82.679688 43.90625 83.671875 43.90625 C 84.667969 43.90625 85.480469 41.355469 85.480469 38.238281 C 85.480469 34.933594 86.25 33.050781 87.332031 33.71875 C 88.351562 34.347656 89.183594 33.5625 89.183594 31.976562 C 89.183594 30.386719 90.433594 29.089844 91.960938 29.089844 C 93.488281 29.089844 94.738281 27.746094 94.738281 26.109375 C 94.738281 23.855469 95.867188 23.414062 99.371094 24.292969 C 102.789062 25.148438 104 24.71875 104 22.640625 C 104 19.4375 111.4375 18.804688 116.527344 21.578125 C 118.296875 22.542969 122.871094 23.828125 126.691406 24.441406 C 130.511719 25.050781 133.636719 26.285156 133.636719 27.175781 C 133.636719 29.207031 144.5 40.199219 146.507812 40.199219 C 147.316406 40.199219 148.5 43.464844 149.140625 47.453125 C 149.777344 51.445312 150.925781 54.984375 151.691406 55.324219 C 152.457031 55.667969 154.75 59.226562 156.789062 63.234375 C 160.011719 69.582031 160.46875 73.984375 160.324219 97.207031 C 160.226562 112.808594 159.386719 124.394531 158.300781 125.109375 C 157.28125 125.777344 155.925781 128.992188 155.292969 132.25 C 153.992188 138.9375 148.867188 145.773438 145.152344 145.773438 C 143.792969 145.773438 143.109375 146.472656 143.636719 147.328125 C 144.164062 148.179688 140.671875 149.789062 135.875 150.902344 C 131.078125 152.011719 125.558594 153.539062 123.605469 154.292969 C 121.316406 155.179688 120.488281 154.976562 121.261719 153.722656 Z M 224.390625 138.367188 C 224.390625 137.347656 222.929688 136.5 221.148438 136.484375 C 216.699219 136.4375 209.570312 128.535156 209.570312 123.640625 C 209.570312 121.433594 208.738281 120.140625 207.71875 120.769531 C 206.515625 121.515625 205.867188 112.25 205.867188 94.332031 C 205.867188 79.160156 205.292969 66.175781 204.589844 65.472656 C 203.886719 64.769531 203.539062 59.835938 203.8125 54.511719 C 204.335938 44.476562 209.84375 32.792969 214.054688 32.792969 C 215.335938 32.792969 217.382812 30.601562 218.605469 27.921875 C 219.824219 25.246094 221.300781 23.53125 221.882812 24.113281 C 222.464844 24.695312 225.746094 23.671875 229.175781 21.832031 C 235.910156 18.226562 251.601562 17.789062 253.722656 21.148438 C 254.398438 22.21875 259.082031 23.5 264.128906 24 C 269.179688 24.496094 273.65625 25.941406 274.078125 27.207031 C 274.5 28.472656 276.414062 30.851562 278.328125 32.488281 C 280.242188 34.128906 281.804688 36.464844 281.804688 37.679688 C 281.804688 38.898438 282.828125 40.234375 284.074219 40.648438 C 287.210938 41.695312 287.394531 91.605469 284.269531 93.535156 C 283.074219 94.273438 281.527344 97.160156 280.828125 99.953125 C 280.125 102.742188 278.875 105.027344 278.046875 105.027344 C 277.222656 105.027344 275.996094 107.527344 275.324219 110.582031 C 274.652344 113.640625 273.335938 116.140625 272.398438 116.140625 C 271.460938 116.140625 270.695312 117.429688 270.695312 119.007812 C 270.695312 122.496094 261.898438 130.957031 258.273438 130.957031 C 256.835938 130.957031 256.117188 131.699219 256.675781 132.605469 C 257.238281 133.511719 254.785156 134.800781 251.230469 135.46875 C 247.671875 136.136719 244.761719 137.476562 244.761719 138.449219 C 244.761719 139.421875 240.179688 140.21875 234.578125 140.21875 C 228.972656 140.21875 224.390625 139.382812 224.390625 138.367188 Z M 241.558594 15.003906 C 242.175781 14.386719 243.773438 14.324219 245.109375 14.859375 C 246.585938 15.449219 246.148438 15.886719 243.992188 15.976562 C 242.039062 16.058594 240.945312 15.621094 241.558594 15.003906 Z M 241.558594 15.003906"/></g><g fill="#d9d9d9" fill-opacity="1"><g><g><path d="M 12.265625 3.171875 C 10.179688 2.734375 8.429688 1.882812 7.015625 0.625 C 5.597656 -0.625 4.625 -2.1875 4.09375 -4.0625 C 3.570312 -5.9375 3.539062 -7.96875 4 -10.15625 C 4.46875 -12.394531 5.414062 -14.398438 6.84375 -16.171875 C 8.28125 -17.941406 9.976562 -19.234375 11.9375 -20.046875 C 13.894531 -20.867188 15.847656 -21.078125 17.796875 -20.671875 C 20.242188 -20.160156 21.972656 -19.148438 22.984375 -17.640625 C 24.003906 -16.128906 24.269531 -14.1875 23.78125 -11.8125 C 23.570312 -10.832031 23.296875 -10.03125 22.953125 -9.40625 L 22.1875 -8.9375 L 8.28125 -11.828125 C 7.570312 -8.578125 7.695312 -5.929688 8.65625 -3.890625 C 9.613281 -1.847656 11.285156 -0.582031 13.671875 -0.09375 C 15.546875 0.300781 17.703125 0.207031 20.140625 -0.375 L 20.421875 -0.21875 L 20.671875 1.359375 C 19.285156 1.972656 17.785156 2.476562 16.171875 2.875 C 14.566406 3.28125 13.265625 3.378906 12.265625 3.171875 Z M 18.09375 -12.203125 C 18.613281 -12.171875 18.972656 -12.21875 19.171875 -12.34375 C 19.367188 -12.476562 19.519531 -12.796875 19.625 -13.296875 C 19.90625 -14.640625 19.757812 -15.738281 19.1875 -16.59375 C 18.613281 -17.457031 17.65625 -18.03125 16.3125 -18.3125 C 14.738281 -18.632812 13.273438 -18.375 11.921875 -17.53125 C 10.566406 -16.695312 9.550781 -15.40625 8.875 -13.65625 Z M 18.09375 -12.203125" transform="translate(105.920071, 317.422059)"/></g></g></g><g fill="#d9d9d9" fill-opacity="1"><g><g><path d="M 8.640625 1.828125 C 7.546875 1.671875 6.554688 1.453125 5.671875 1.171875 C 4.796875 0.898438 4.113281 0.640625 3.625 0.390625 C 3.132812 0.148438 2.828125 -0.0078125 2.703125 -0.09375 L 2.59375 -0.46875 C 2.769531 -0.957031 3.035156 -1.988281 3.390625 -3.5625 C 3.753906 -5.144531 4.015625 -6.359375 4.171875 -7.203125 L 6 -7.203125 C 5.6875 -4.960938 5.835938 -3.332031 6.453125 -2.3125 C 7.078125 -1.289062 8.285156 -0.65625 10.078125 -0.40625 C 11.367188 -0.226562 12.492188 -0.363281 13.453125 -0.8125 C 14.410156 -1.269531 14.953125 -1.921875 15.078125 -2.765625 C 15.191406 -3.617188 14.898438 -4.453125 14.203125 -5.265625 C 13.515625 -6.078125 12.085938 -7.269531 9.921875 -8.84375 C 8.117188 -10.101562 6.84375 -11.300781 6.09375 -12.4375 C 5.351562 -13.582031 5.070312 -14.769531 5.25 -16 C 5.4375 -17.351562 6.015625 -18.519531 6.984375 -19.5 C 7.953125 -20.488281 9.191406 -21.195312 10.703125 -21.625 C 12.210938 -22.0625 13.847656 -22.15625 15.609375 -21.90625 C 16.429688 -21.789062 17.207031 -21.625 17.9375 -21.40625 C 18.664062 -21.1875 19.253906 -20.972656 19.703125 -20.765625 C 20.160156 -20.566406 20.460938 -20.4375 20.609375 -20.375 L 20.671875 -20.109375 C 20.554688 -19.773438 20.296875 -19.023438 19.890625 -17.859375 C 19.484375 -16.691406 19.132812 -15.414062 18.84375 -14.03125 L 16.9375 -14.15625 C 16.945312 -14.25 16.988281 -14.445312 17.0625 -14.75 C 17.132812 -15.050781 17.191406 -15.335938 17.234375 -15.609375 C 17.398438 -16.828125 17.191406 -17.765625 16.609375 -18.421875 C 16.023438 -19.078125 15.003906 -19.503906 13.546875 -19.703125 C 12.390625 -19.867188 11.375 -19.734375 10.5 -19.296875 C 9.632812 -18.867188 9.144531 -18.265625 9.03125 -17.484375 C 8.914062 -16.660156 9.15625 -15.847656 9.75 -15.046875 C 10.351562 -14.242188 11.375 -13.320312 12.8125 -12.28125 C 15.375 -10.4375 17.082031 -8.941406 17.9375 -7.796875 C 18.800781 -6.660156 19.144531 -5.445312 18.96875 -4.15625 C 18.78125 -2.863281 18.179688 -1.71875 17.171875 -0.71875 C 16.160156 0.28125 14.890625 1.007812 13.359375 1.46875 C 11.835938 1.9375 10.265625 2.054688 8.640625 1.828125 Z M 8.640625 1.828125" transform="translate(129.482452, 322.244798)"/></g></g></g><g fill="#d9d9d9" fill-opacity="1"><g><g><path d="M 10.515625 1.46875 C 8.179688 1.28125 6.578125 0.675781 5.703125 -0.34375 C 4.828125 -1.363281 4.476562 -3 4.65625 -5.25 L 5.6875 -17.84375 C 5.769531 -18.769531 5.617188 -19.4375 5.234375 -19.84375 C 4.859375 -20.257812 4.109375 -20.53125 2.984375 -20.65625 L 2.796875 -20.96875 L 3.1875 -22.484375 C 4.207031 -22.878906 5.21875 -23.390625 6.21875 -24.015625 C 7.21875 -24.640625 8.035156 -25.191406 8.671875 -25.671875 C 9.316406 -26.148438 9.734375 -26.472656 9.921875 -26.640625 L 10.90625 -26.125 C 10.851562 -25.96875 10.765625 -25.566406 10.640625 -24.921875 C 10.523438 -24.285156 10.375 -23.421875 10.1875 -22.328125 L 17.734375 -21.875 L 17.890625 -21.703125 L 17.1875 -19.03125 L 9.765625 -19.796875 C 9.222656 -16.046875 8.753906 -11.773438 8.359375 -6.984375 C 8.210938 -5.253906 8.410156 -4.003906 8.953125 -3.234375 C 9.492188 -2.460938 10.5 -2.015625 11.96875 -1.890625 C 12.476562 -1.847656 12.992188 -1.875 13.515625 -1.96875 C 14.046875 -2.070312 14.488281 -2.1875 14.84375 -2.3125 C 15.207031 -2.4375 15.4375 -2.515625 15.53125 -2.546875 L 15.9375 -1.171875 C 15.726562 -1.023438 15.265625 -0.738281 14.546875 -0.3125 C 13.835938 0.113281 13.082031 0.523438 12.28125 0.921875 C 11.476562 1.316406 10.890625 1.5 10.515625 1.46875 Z M 10.515625 1.46875" transform="translate(150.82874, 325.148058)"/></g></g></g><g fill="#d9d9d9" fill-opacity="1"><g><g><path d="M 7.640625 0.859375 C 6.722656 0.828125 6.019531 0.523438 5.53125 -0.046875 C 5.050781 -0.628906 4.828125 -1.332031 4.859375 -2.15625 C 4.890625 -3.050781 5.203125 -3.796875 5.796875 -4.390625 C 6.398438 -4.992188 7.179688 -5.28125 8.140625 -5.25 C 9.066406 -5.21875 9.78125 -4.910156 10.28125 -4.328125 C 10.78125 -3.742188 11.015625 -3.039062 10.984375 -2.21875 C 10.960938 -1.320312 10.640625 -0.578125 10.015625 0.015625 C 9.398438 0.609375 8.609375 0.890625 7.640625 0.859375 Z M 7.640625 0.859375" transform="translate(168.49728, 326.560595)"/></g></g></g><g fill="#d9d9d9" fill-opacity="1"><g><g><path d="M 2.796875 -1.796875 C 4.097656 -1.929688 5.070312 -2.175781 5.71875 -2.53125 C 6.363281 -2.882812 6.796875 -3.457031 7.015625 -4.25 C 7.242188 -5.039062 7.34375 -6.207031 7.3125 -7.75 L 7.109375 -19.46875 C 7.078125 -20.675781 6.84375 -21.460938 6.40625 -21.828125 C 5.976562 -22.191406 5.265625 -22.363281 4.265625 -22.34375 C 3.828125 -22.34375 3.304688 -22.296875 2.703125 -22.203125 C 2.109375 -22.109375 1.726562 -22.035156 1.5625 -21.984375 L 1.390625 -22.140625 L 1.5625 -24.296875 C 1.90625 -24.347656 2.597656 -24.453125 3.640625 -24.609375 C 4.679688 -24.765625 5.867188 -24.957031 7.203125 -25.1875 C 9.941406 -25.6875 11.476562 -25.976562 11.8125 -26.0625 C 12.15625 -26.15625 12.347656 -26.203125 12.390625 -26.203125 L 12.703125 -25.328125 C 12.035156 -24.734375 11.578125 -24.148438 11.328125 -23.578125 C 11.078125 -23.003906 10.929688 -22.140625 10.890625 -20.984375 C 10.773438 -15.523438 10.757812 -10.519531 10.84375 -5.96875 C 10.875 -4.59375 11.0625 -3.664062 11.40625 -3.1875 C 11.757812 -2.71875 12.429688 -2.492188 13.421875 -2.515625 C 14.035156 -2.523438 14.597656 -2.550781 15.109375 -2.59375 C 15.628906 -2.632812 15.976562 -2.675781 16.15625 -2.71875 L 16.25 -2.515625 L 15.84375 -0.125 C 15.363281 -0.15625 14.453125 -0.175781 13.109375 -0.1875 C 11.773438 -0.195312 10.40625 -0.1875 9 -0.15625 C 7.90625 -0.144531 6.65625 -0.0390625 5.25 0.15625 C 3.851562 0.351562 2.945312 0.488281 2.53125 0.5625 Z M 2.796875 -1.796875" transform="translate(184.943537, 327.09598)"/></g></g></g><g fill="#d9d9d9" fill-opacity="1"><g><g><path d="M 9.921875 -26.859375 C 11.691406 -26.992188 13.3125 -26.664062 14.78125 -25.875 C 16.257812 -25.082031 17.457031 -23.90625 18.375 -22.34375 C 19.289062 -20.78125 19.832031 -18.957031 20 -16.875 C 20.363281 -12.320312 19.1875 -8.109375 16.46875 -4.234375 C 13.75 -0.359375 9.804688 2.734375 4.640625 5.046875 L 4.25 4.8125 L 3.5625 3.3125 C 6.96875 1.570312 9.703125 -0.578125 11.765625 -3.140625 C 13.828125 -5.703125 15.140625 -8.5 15.703125 -11.53125 L 15.53125 -11.609375 C 14.289062 -10.691406 13.175781 -9.945312 12.1875 -9.375 C 11.207031 -8.8125 10.5 -8.515625 10.0625 -8.484375 C 8.414062 -8.347656 6.882812 -8.59375 5.46875 -9.21875 C 4.0625 -9.851562 2.914062 -10.78125 2.03125 -12 C 1.144531 -13.21875 0.632812 -14.613281 0.5 -16.1875 C 0.351562 -18.03125 0.660156 -19.738281 1.421875 -21.3125 C 2.191406 -22.882812 3.320312 -24.160156 4.8125 -25.140625 C 6.300781 -26.128906 8.003906 -26.703125 9.921875 -26.859375 Z M 10.9375 -11.625 C 11.75 -11.6875 12.617188 -11.9375 13.546875 -12.375 C 14.484375 -12.8125 15.28125 -13.320312 15.9375 -13.90625 C 15.976562 -14.707031 15.972656 -15.484375 15.921875 -16.234375 C 15.703125 -18.867188 14.984375 -20.910156 13.765625 -22.359375 C 12.554688 -23.804688 10.992188 -24.453125 9.078125 -24.296875 C 7.398438 -24.171875 6.128906 -23.519531 5.265625 -22.34375 C 4.398438 -21.175781 4.046875 -19.632812 4.203125 -17.71875 C 4.296875 -16.53125 4.660156 -15.453125 5.296875 -14.484375 C 5.941406 -13.515625 6.757812 -12.769531 7.75 -12.25 C 8.738281 -11.738281 9.800781 -11.53125 10.9375 -11.625 Z M 10.9375 -11.625" transform="translate(203.482321, 326.820603)"/></g></g></g><g fill="#d9d9d9" fill-opacity="1"><g><g><path d="M 10.328125 -19.46875 C 11.960938 -19.71875 13.503906 -19.582031 14.953125 -19.0625 C 16.398438 -18.539062 17.613281 -17.703125 18.59375 -16.546875 C 19.570312 -15.390625 20.179688 -14.03125 20.421875 -12.46875 C 20.691406 -10.644531 20.5 -8.921875 19.84375 -7.296875 C 19.195312 -5.679688 18.164062 -4.328125 16.75 -3.234375 C 15.332031 -2.148438 13.675781 -1.460938 11.78125 -1.171875 C 10.019531 -0.910156 8.375 -1.117188 6.84375 -1.796875 C 5.320312 -2.484375 4.046875 -3.570312 3.015625 -5.0625 C 1.992188 -6.5625 1.328125 -8.34375 1.015625 -10.40625 C 0.328125 -14.914062 1.195312 -19.195312 3.625 -23.25 C 6.050781 -27.3125 9.769531 -30.679688 14.78125 -33.359375 L 15.15625 -33.171875 L 15.953125 -31.734375 C 12.679688 -29.734375 10.109375 -27.382812 8.234375 -24.6875 C 6.367188 -22 5.269531 -19.125 4.9375 -16.0625 L 5.109375 -15.96875 C 6.265625 -16.976562 7.316406 -17.796875 8.265625 -18.421875 C 9.210938 -19.054688 9.898438 -19.40625 10.328125 -19.46875 Z M 12.4375 -3.765625 C 14.09375 -4.023438 15.3125 -4.765625 16.09375 -5.984375 C 16.875 -7.210938 17.117188 -8.773438 16.828125 -10.671875 C 16.648438 -11.867188 16.207031 -12.925781 15.5 -13.84375 C 14.789062 -14.757812 13.921875 -15.441406 12.890625 -15.890625 C 11.867188 -16.335938 10.796875 -16.472656 9.671875 -16.296875 C 8.859375 -16.171875 8.003906 -15.859375 7.109375 -15.359375 C 6.222656 -14.867188 5.46875 -14.296875 4.84375 -13.640625 C 4.851562 -12.878906 4.914062 -12.109375 5.03125 -11.328125 C 5.425781 -8.722656 6.28125 -6.738281 7.59375 -5.375 C 8.914062 -4.007812 10.53125 -3.472656 12.4375 -3.765625 Z M 12.4375 -3.765625" transform="translate(227.894777, 324.824231)"/></g></g></g><g fill="#d9d9d9" fill-opacity="1"><g><g><path d="M 12.8125 -2.359375 C 10.675781 -1.859375 8.675781 -1.9375 6.8125 -2.59375 C 4.957031 -3.257812 3.359375 -4.414062 2.015625 -6.0625 C 0.679688 -7.71875 -0.269531 -9.765625 -0.84375 -12.203125 C -1.4375 -14.773438 -1.445312 -17.210938 -0.875 -19.515625 C -0.3125 -21.816406 0.757812 -23.769531 2.34375 -25.375 C 3.925781 -26.976562 5.867188 -28.046875 8.171875 -28.578125 C 10.234375 -29.054688 12.203125 -28.976562 14.078125 -28.34375 C 15.953125 -27.707031 17.550781 -26.570312 18.875 -24.9375 C 20.207031 -23.3125 21.148438 -21.316406 21.703125 -18.953125 C 22.316406 -16.347656 22.34375 -13.867188 21.78125 -11.515625 C 21.226562 -9.171875 20.171875 -7.191406 18.609375 -5.578125 C 17.046875 -3.972656 15.113281 -2.898438 12.8125 -2.359375 Z M 12.828125 -6.375 C 15.328125 -6.957031 17.164062 -8.21875 18.34375 -10.15625 C 19.53125 -12.101562 19.828125 -14.347656 19.234375 -16.890625 C 18.804688 -18.722656 18.039062 -20.269531 16.9375 -21.53125 C 15.832031 -22.789062 14.507812 -23.660156 12.96875 -24.140625 C 11.4375 -24.628906 9.804688 -24.671875 8.078125 -24.265625 C 5.566406 -23.679688 3.734375 -22.421875 2.578125 -20.484375 C 1.429688 -18.546875 1.164062 -16.253906 1.78125 -13.609375 C 2.195312 -11.804688 2.945312 -10.28125 4.03125 -9.03125 C 5.113281 -7.789062 6.414062 -6.9375 7.9375 -6.46875 C 9.457031 -6 11.085938 -5.96875 12.828125 -6.375 Z M 12.828125 -6.375" transform="translate(252.563723, 321.079232)"/></g></g></g></svg>